<svg xmlns="http://www.w3.org/2000/svg" xmlns:xlink="http://www.w3.org/1999/xlink" viewBox="0 0 23.22 33.96"><defs><style>.cls-1{fill:url(#linear-gradient);}.cls-2,.cls-3,.cls-4,.cls-5{fill:none;stroke-linecap:round;stroke-linejoin:round;}.cls-2,.cls-3,.cls-4{stroke-width:0.52px;}.cls-2{stroke:url(#linear-gradient-2);}.cls-3{stroke:url(#linear-gradient-3);}.cls-4{stroke:url(#linear-gradient-4);}.cls-5{stroke:#f29bbe;stroke-width:0.66px;}.cls-6{fill:#f29bbe;}</style><linearGradient id="linear-gradient" x1="301.7" y1="-186.18" x2="317.01" y2="-186.18" gradientTransform="translate(-251.86 266.56) rotate(-12.61)" gradientUnits="userSpaceOnUse"><stop offset="0" stop-color="#ffce3a"/><stop offset="1" stop-color="#f8a01b"/></linearGradient><linearGradient id="linear-gradient-2" x1="308.31" y1="-177.58" x2="312.98" y2="-177.58" gradientTransform="translate(-251.86 266.56) rotate(-12.61)" gradientUnits="userSpaceOnUse"><stop offset="0.08" stop-color="#3d2a7b"/><stop offset="0.25" stop-color="#452c7e"/><stop offset="0.53" stop-color="#5b3386"/><stop offset="0.86" stop-color="#803e92"/><stop offset="1" stop-color="#914398"/></linearGradient><linearGradient id="linear-gradient-3" x1="311.51" y1="-181.31" x2="314.39" y2="-181.31" xlink:href="#linear-gradient-2"/><linearGradient id="linear-gradient-4" x1="306.9" y1="-181.31" x2="309.78" y2="-181.31" xlink:href="#linear-gradient-2"/></defs><g id="Layer_2" data-name="Layer 2"><g id="Graphics"><path class="cls-1" d="M18.35,22.34a7.65,7.65,0,1,1-13-3.64L3,8.06a4.07,4.07,0,0,1,7.94-1.77l2.33,10.44A7.63,7.63,0,0,1,18.35,22.34Z"/><path class="cls-2" d="M10.57,26.16h0a3.75,3.75,0,0,1,2-1,3.49,3.49,0,0,1,2.06.1h0"/><path class="cls-3" d="M12.89,21.9h0a1.43,1.43,0,0,1,1-.95,1.53,1.53,0,0,1,1.31.44h0"/><path class="cls-4" d="M8.39,22.91h0a1.42,1.42,0,0,1,1-.95,1.53,1.53,0,0,1,1.3.43h0"/><line class="cls-5" x1="11.59" y1="5.3" x2="13.41" y2="4.89"/><line class="cls-5" x1="12.26" y1="8.29" x2="14.08" y2="7.88"/><line class="cls-5" x1="12.89" y1="11.14" x2="14.72" y2="10.73"/><path class="cls-5" d="M16,15.71,13.7,5.62a6.77,6.77,0,1,0-13.21,3L2.75,18.67a9.69,9.69,0,1,0,13.21-3Z"/><path class="cls-6" d="M18.52,14.55a1.27,1.27,0,0,0-.07.75A1.33,1.33,0,1,0,21,14.72a1.36,1.36,0,0,0-.39-.65l-1.51-1.61Z"/><path class="cls-6" d="M21.61,16.58a.76.76,0,0,0-.05.47.84.84,0,0,0,1.64-.36.79.79,0,0,0-.25-.41l-.95-1Z"/></g></g></svg>