<svg xmlns="http://www.w3.org/2000/svg" viewBox="0 0 42.54 48.36"><defs><style>.cls-1{fill:#f29bbe;}</style></defs><g id="Layer_2" data-name="Layer 2"><g id="Graphics"><path class="cls-1" d="M21.66,48.36a6.3,6.3,0,0,1-3.22-2.08c-1.91-2-3.85-3.86-5.78-5.78-.12-.13-.24-.24-.42-.41-.31.32-.59.64-.89.94a4.23,4.23,0,0,1-6.16,0q-1.94-1.91-3.84-3.84a4.22,4.22,0,0,1,0-6.19c2.58-2.59,5.2-5.14,7.73-7.77A29,29,0,0,0,16.69,8.72a1.1,1.1,0,0,0-.15-.65,4.26,4.26,0,0,1,3.89-6.26A4.1,4.1,0,0,1,23.3,3.06q8,8,16,16a4,4,0,0,1,1,4.48,4,4,0,0,1-3.61,2.76,4.24,4.24,0,0,1-2.37-.47,1.37,1.37,0,0,0-.79-.13,29.23,29.23,0,0,0-10.64,4.54,2.91,2.91,0,0,0-.24.18l.53.54a4.24,4.24,0,0,1,0,6.26c-.29.29-.61.55-1,.87,1.13,1.11,2.23,2.09,3.22,3.16A4.23,4.23,0,0,1,23.91,48c-.33.13-.68.22-1,.32ZM12.29,23.94l6.14,6.14a32.6,32.6,0,0,1,13-6.81L19.09,11A32.58,32.58,0,0,1,12.29,23.94Zm-2,2.19-.26.24L3.41,33a1.45,1.45,0,0,0,0,2.3l3.64,3.64a1.48,1.48,0,0,0,2.44,0l6.44-6.45.29-.31Zm27.48-3.89a1.69,1.69,0,0,0-.58-1.34L21.45,5.21a2.81,2.81,0,0,0-.31-.29A1.42,1.42,0,0,0,18.88,6a1.59,1.59,0,0,0,.58,1.24q7.84,7.83,15.69,15.69a2.7,2.7,0,0,0,.31.28,1.36,1.36,0,0,0,1.47.14A1.33,1.33,0,0,0,37.72,22.24ZM14.32,38.16l7,7a1.33,1.33,0,0,0,1.34.37A1.42,1.42,0,0,0,23.2,43q-3.35-3.36-6.71-6.7a1.22,1.22,0,0,0-.18-.16Zm6-2.1c2.09-1.74,1.64-2.56,0-3.87l-2,1.87Z"/><path class="cls-1" d="M39.8,4.32a4.49,4.49,0,0,1-.57,1c-.88.93-1.79,1.82-2.7,2.71a1.41,1.41,0,1,1-2-2c.9-.92,1.81-1.83,2.73-2.74A1.38,1.38,0,0,1,38.86,3,1.64,1.64,0,0,1,39.8,4.32Z"/><path class="cls-1" d="M39.7,14.16H38.33a1.43,1.43,0,0,1-1.45-1.42,1.41,1.41,0,0,1,1.43-1.4c.94,0,1.89,0,2.83,0a1.39,1.39,0,0,1,1.4,1.42,1.41,1.41,0,0,1-1.42,1.4C40.65,14.18,40.18,14.16,39.7,14.16Z"/><path class="cls-1" d="M31.21,2.86c0,.45,0,.91,0,1.37a1.41,1.41,0,0,1-2.81.09c0-1,0-2,0-3a1.41,1.41,0,0,1,2.81.1C31.22,1.91,31.21,2.38,31.21,2.86Z"/><path class="cls-1" d="M10.1,30.68a1.44,1.44,0,0,1,1.45.84,1.32,1.32,0,0,1-.22,1.5c-.69.73-1.4,1.45-2.14,2.13a1.37,1.37,0,0,1-1.95-.08,1.4,1.4,0,0,1,0-1.93c.68-.71,1.36-1.4,2.08-2.06A2.66,2.66,0,0,1,10.1,30.68Z"/></g></g></svg>