<svg xmlns="http://www.w3.org/2000/svg" xmlns:xlink="http://www.w3.org/1999/xlink" viewBox="0 0 21.78 35.41"><defs><style>.cls-1{fill:url(#linear-gradient);}.cls-2,.cls-3,.cls-4,.cls-5{fill:none;stroke-linecap:round;stroke-linejoin:round;}.cls-2,.cls-3,.cls-4{stroke-width:0.56px;}.cls-2{stroke:url(#linear-gradient-2);}.cls-3{stroke:url(#linear-gradient-3);}.cls-4{stroke:url(#linear-gradient-4);}.cls-5{stroke:#f29bbe;stroke-width:0.7px;}</style><linearGradient id="linear-gradient" x1="237.86" y1="-231.51" x2="253.82" y2="-231.51" gradientTransform="translate(-179.58 297.66) rotate(-12.61)" gradientUnits="userSpaceOnUse"><stop offset="0" stop-color="#f69441"/><stop offset="1" stop-color="#f06024"/></linearGradient><linearGradient id="linear-gradient-2" x1="243.3" y1="-226.02" x2="246.41" y2="-226.02" gradientTransform="translate(-179.58 297.66) rotate(-12.61)" gradientUnits="userSpaceOnUse"><stop offset="0.08" stop-color="#3d2a7b"/><stop offset="0.25" stop-color="#452c7e"/><stop offset="0.53" stop-color="#5b3386"/><stop offset="0.86" stop-color="#803e92"/><stop offset="1" stop-color="#914398"/></linearGradient><linearGradient id="linear-gradient-3" x1="247.77" y1="-226.02" x2="250.88" y2="-226.02" xlink:href="#linear-gradient-2"/><linearGradient id="linear-gradient-4" x1="244.96" y1="-222.68" x2="249.26" y2="-222.68" xlink:href="#linear-gradient-2"/></defs><g id="Layer_2" data-name="Layer 2"><g id="Graphics"><path class="cls-1" d="M19.13,23.28A8,8,0,1,1,5.6,19.49L3.12,8.41A4.24,4.24,0,0,1,11.4,6.56l2.43,10.88A8,8,0,0,1,19.13,23.28Z"/><polyline class="cls-2" points="8.45 22.45 11.27 23.4 9.11 25.38"/><polyline class="cls-3" points="15.95 23.85 13.14 22.9 15.3 20.92"/><path class="cls-4" d="M15,26.91l-3.64.81h0a1.87,1.87,0,0,1,1.41-2.23h0A1.87,1.87,0,0,1,15,26.91Z"/><line class="cls-5" x1="12.08" y1="5.53" x2="13.98" y2="5.1"/><line class="cls-5" x1="12.78" y1="8.64" x2="14.68" y2="8.22"/><line class="cls-5" x1="13.45" y1="11.61" x2="15.35" y2="11.19"/><path class="cls-5" d="M16.64,16.38,14.29,5.87A7.05,7.05,0,0,0,.52,8.94L2.88,19.46a10.09,10.09,0,1,0,13.76-3.08Z"/></g></g></svg>