<svg xmlns="http://www.w3.org/2000/svg" xmlns:xlink="http://www.w3.org/1999/xlink" viewBox="0 0 26.02 42.32"><defs><style>.cls-1{opacity:0.8;fill:url(#linear-gradient);}.cls-2,.cls-3,.cls-4,.cls-5{fill:none;stroke-linecap:round;stroke-linejoin:round;}.cls-2,.cls-3,.cls-4{stroke-width:0.64px;}.cls-2{stroke:url(#linear-gradient-2);}.cls-3{stroke:url(#linear-gradient-3);}.cls-4{stroke:url(#linear-gradient-4);}.cls-5{stroke:#f29bbe;stroke-width:0.8px;}</style><linearGradient id="linear-gradient" x1="295.03" y1="-182.86" x2="314.12" y2="-182.86" gradientTransform="translate(-245.61 266.54) rotate(-12.61)" gradientUnits="userSpaceOnUse"><stop offset="0" stop-color="#f69441"/><stop offset="1" stop-color="#f06024"/></linearGradient><linearGradient id="linear-gradient-2" x1="301.55" y1="-176.29" x2="305.23" y2="-176.29" gradientTransform="translate(-245.61 266.54) rotate(-12.61)" gradientUnits="userSpaceOnUse"><stop offset="0.08" stop-color="#3d2a7b"/><stop offset="0.25" stop-color="#452c7e"/><stop offset="0.53" stop-color="#5b3386"/><stop offset="0.86" stop-color="#803e92"/><stop offset="1" stop-color="#914398"/></linearGradient><linearGradient id="linear-gradient-3" x1="306.9" y1="-176.29" x2="310.58" y2="-176.29" xlink:href="#linear-gradient-2"/><linearGradient id="linear-gradient-4" x1="303.54" y1="-172.29" x2="308.65" y2="-172.29" xlink:href="#linear-gradient-2"/></defs><g id="Layer_2" data-name="Layer 2"><g id="Graphics"><path class="cls-1" d="M22.87,27.84A9.54,9.54,0,1,1,6.68,23.3L3.72,10a5,5,0,0,1,.67-3.81,5.06,5.06,0,0,1,9.22,1.6l2.92,13A9.52,9.52,0,0,1,22.87,27.84Z"/><polyline class="cls-2" points="10.1 26.84 13.47 27.97 10.88 30.34"/><polyline class="cls-3" points="19.07 28.51 15.7 27.38 18.28 25.01"/><path class="cls-4" d="M17.91,32.17l-4.36,1h0a2.23,2.23,0,0,1,1.69-2.67h0a2.24,2.24,0,0,1,2.67,1.69Z"/><line class="cls-5" x1="14.44" y1="6.6" x2="16.71" y2="6.09"/><line class="cls-5" x1="15.27" y1="10.32" x2="17.55" y2="9.82"/><line class="cls-5" x1="16.07" y1="13.87" x2="18.34" y2="13.37"/><path class="cls-5" d="M19.89,19.58,17.07,7A8.43,8.43,0,1,0,.61,10.68L3.42,23.26a12.07,12.07,0,1,0,16.47-3.68Z"/></g></g></svg>