<svg xmlns="http://www.w3.org/2000/svg" xmlns:xlink="http://www.w3.org/1999/xlink" viewBox="0 0 446.79 108.91"><defs><style>.cls-1{opacity:0.5;fill:url(#linear-gradient);}.cls-2{fill:#f29bbe;}</style><linearGradient id="linear-gradient" x1="223.4" y1="108.91" x2="223.4" gradientUnits="userSpaceOnUse"><stop offset="0" stop-color="#99539f" stop-opacity="0"/><stop offset="1" stop-color="#d35fa3"/></linearGradient></defs><g id="Layer_2" data-name="Layer 2"><g id="Graphics"><path class="cls-1" d="M415.68,18.37H249.35a12.18,12.18,0,0,1-8.64-3.58l-13-13a6.09,6.09,0,0,0-8.6,0l-13,13a12.22,12.22,0,0,1-8.64,3.57H31.12A31.12,31.12,0,0,0,0,49.49v59.42H446.79V49.48A31.11,31.11,0,0,0,415.68,18.37Z"/><path class="cls-2" d="M54.35,86.77a6.4,6.4,0,0,1-3.22-2.09c-1.9-2-3.84-3.86-5.77-5.78-.12-.12-.24-.24-.43-.41-.3.32-.58.64-.88.94a4.23,4.23,0,0,1-6.16,0Q36,77.52,34.05,75.59a4.22,4.22,0,0,1,0-6.19c2.57-2.59,5.2-5.14,7.73-7.77a29,29,0,0,0,7.61-14.5,1.1,1.1,0,0,0-.15-.65,4.27,4.27,0,0,1,3.89-6.27A4.16,4.16,0,0,1,56,41.46q8,8,16,16a4.25,4.25,0,0,1-2.62,7.25A4.39,4.39,0,0,1,67,64.23a1.32,1.32,0,0,0-.78-.12,29,29,0,0,0-10.64,4.53,1.83,1.83,0,0,0-.24.18l.53.54a4.25,4.25,0,0,1,0,6.27c-.29.29-.61.54-1,.87,1.13,1.1,2.22,2.08,3.22,3.15a4.24,4.24,0,0,1-1.5,6.79c-.33.14-.69.22-1,.33ZM45,62.34l6.14,6.14a32.39,32.39,0,0,1,13-6.8L51.78,49.38A32.43,32.43,0,0,1,45,62.34Zm-2.05,2.2-.26.23-6.57,6.58a1.45,1.45,0,0,0,0,2.3l3.64,3.64a1.47,1.47,0,0,0,2.43,0l6.45-6.44.29-.32Zm27.47-3.89a1.66,1.66,0,0,0-.57-1.35Q62,51.47,54.15,43.61a2.14,2.14,0,0,0-.32-.28,1.34,1.34,0,0,0-1.46-.14,1.33,1.33,0,0,0-.79,1.2,1.59,1.59,0,0,0,.58,1.24L67.85,61.32a2.81,2.81,0,0,0,.31.29,1.38,1.38,0,0,0,1.47.13A1.28,1.28,0,0,0,70.41,60.65ZM47,76.56l7,7a1.31,1.31,0,0,0,1.34.37,1.41,1.41,0,0,0,.56-2.46q-3.35-3.36-6.7-6.7a1.77,1.77,0,0,0-.18-.15Zm6-2.1c2.08-1.73,1.64-2.56,0-3.87l-2,1.88Z"/><path class="cls-2" d="M72.5,42.73a5.24,5.24,0,0,1-.57,1c-.88.92-1.79,1.81-2.7,2.71a1.42,1.42,0,1,1-2-2c.91-.91,1.82-1.83,2.74-2.73a1.38,1.38,0,0,1,1.6-.33A1.64,1.64,0,0,1,72.5,42.73Z"/><path class="cls-2" d="M72.4,52.57H71a1.43,1.43,0,0,1-1.45-1.43A1.42,1.42,0,0,1,71,49.74c.94,0,1.88,0,2.83,0a1.4,1.4,0,0,1,1.4,1.42,1.42,1.42,0,0,1-1.42,1.41Z"/><path class="cls-2" d="M63.91,41.26c0,.46,0,.91,0,1.37a1.41,1.41,0,0,1-2.81.09q-.06-1.48,0-3a1.41,1.41,0,0,1,2.81.09C63.91,40.31,63.91,40.79,63.91,41.26Z"/><path class="cls-2" d="M42.79,69.08a1.45,1.45,0,0,1,1.46.84,1.32,1.32,0,0,1-.22,1.5c-.69.73-1.4,1.45-2.14,2.14a1.38,1.38,0,0,1-2-.09,1.4,1.4,0,0,1,0-1.93c.67-.7,1.36-1.4,2.08-2.06A2.75,2.75,0,0,1,42.79,69.08Z"/></g></g></svg>