<svg xmlns="http://www.w3.org/2000/svg" xmlns:xlink="http://www.w3.org/1999/xlink" viewBox="0 0 17.34 28.2"><defs><style>.cls-1{fill:url(#linear-gradient);}.cls-2,.cls-3,.cls-4,.cls-5{fill:none;stroke-linecap:round;stroke-linejoin:round;}.cls-2,.cls-3,.cls-4{stroke-width:0.45px;}.cls-2{stroke:url(#linear-gradient-2);}.cls-3{stroke:url(#linear-gradient-3);}.cls-4{stroke:url(#linear-gradient-4);}.cls-5{stroke:#f29bbe;stroke-width:0.56px;}</style><linearGradient id="linear-gradient" x1="250.9" y1="-31.91" x2="263.61" y2="-31.91" gradientTransform="translate(-236.29 101.68) rotate(-12.61)" gradientUnits="userSpaceOnUse"><stop offset="0" stop-color="#f69441"/><stop offset="1" stop-color="#f06024"/></linearGradient><linearGradient id="linear-gradient-2" x1="255.23" y1="-27.53" x2="257.7" y2="-27.53" gradientTransform="translate(-236.29 101.68) rotate(-12.61)" gradientUnits="userSpaceOnUse"><stop offset="0.08" stop-color="#3d2a7b"/><stop offset="0.25" stop-color="#452c7e"/><stop offset="0.53" stop-color="#5b3386"/><stop offset="0.86" stop-color="#803e92"/><stop offset="1" stop-color="#914398"/></linearGradient><linearGradient id="linear-gradient-3" x1="258.79" y1="-27.53" x2="261.26" y2="-27.53" xlink:href="#linear-gradient-2"/><linearGradient id="linear-gradient-4" x1="256.55" y1="-24.87" x2="259.97" y2="-24.87" xlink:href="#linear-gradient-2"/></defs><g id="Layer_2" data-name="Layer 2"><g id="Graphics"><path class="cls-1" d="M15.24,18.54a6.36,6.36,0,1,1-10.78-3l-2-8.82a3.33,3.33,0,0,1,.44-2.54A3.37,3.37,0,0,1,9.07,5.22L11,13.89A6.34,6.34,0,0,1,15.24,18.54Z"/><polyline class="cls-2" points="6.73 17.88 8.97 18.63 7.25 20.21"/><polyline class="cls-3" points="12.7 18.99 10.46 18.23 12.18 16.66"/><path class="cls-4" d="M11.93,21.43,9,22.08H9a1.49,1.49,0,0,1,1.13-1.78h0a1.49,1.49,0,0,1,1.77,1.13Z"/><line class="cls-5" x1="9.62" y1="4.4" x2="11.14" y2="4.06"/><line class="cls-5" x1="10.18" y1="6.88" x2="11.69" y2="6.55"/><line class="cls-5" x1="10.71" y1="9.25" x2="12.22" y2="8.91"/><path class="cls-5" d="M13.25,13,11.38,4.67a5.62,5.62,0,0,0-11,2.45L2.29,15.5a8,8,0,1,0,11-2.46Z"/></g></g></svg>