<svg xmlns="http://www.w3.org/2000/svg" xmlns:xlink="http://www.w3.org/1999/xlink" viewBox="0 0 19.65 28.75"><defs><style>.cls-1{fill:url(#linear-gradient);}.cls-2,.cls-3,.cls-4,.cls-5{fill:none;stroke-linecap:round;stroke-linejoin:round;}.cls-2,.cls-3,.cls-4{stroke-width:0.44px;}.cls-2{stroke:url(#linear-gradient-2);}.cls-3{stroke:url(#linear-gradient-3);}.cls-4{stroke:url(#linear-gradient-4);}.cls-5{stroke:#f29bbe;stroke-width:0.55px;}.cls-6{fill:#f29bbe;}</style><linearGradient id="linear-gradient" x1="275.6" y1="-28.17" x2="288.56" y2="-28.17" gradientTransform="translate(-261.18 103.74) rotate(-12.61)" gradientUnits="userSpaceOnUse"><stop offset="0" stop-color="#ffce3a"/><stop offset="1" stop-color="#f8a01b"/></linearGradient><linearGradient id="linear-gradient-2" x1="281.2" y1="-20.89" x2="285.15" y2="-20.89" gradientTransform="translate(-261.18 103.74) rotate(-12.61)" gradientUnits="userSpaceOnUse"><stop offset="0.08" stop-color="#3d2a7b"/><stop offset="0.25" stop-color="#452c7e"/><stop offset="0.53" stop-color="#5b3386"/><stop offset="0.86" stop-color="#803e92"/><stop offset="1" stop-color="#914398"/></linearGradient><linearGradient id="linear-gradient-3" x1="283.91" y1="-24.05" x2="286.34" y2="-24.05" xlink:href="#linear-gradient-2"/><linearGradient id="linear-gradient-4" x1="280.01" y1="-24.05" x2="282.44" y2="-24.05" xlink:href="#linear-gradient-2"/></defs><g id="Layer_2" data-name="Layer 2"><g id="Graphics"><path class="cls-1" d="M15.53,18.9a6.48,6.48,0,1,1-11-3.08l-2-9A3.43,3.43,0,0,1,3,4.23,3.49,3.49,0,0,1,5.14,2.71,3.45,3.45,0,0,1,9.25,5.32l2,8.84A6.47,6.47,0,0,1,15.53,18.9Z"/><path class="cls-2" d="M8.94,22.14h0a3.2,3.2,0,0,1,1.68-.84,3,3,0,0,1,1.74.08h0"/><path class="cls-3" d="M10.91,18.54h0a1.24,1.24,0,0,1,.84-.81,1.3,1.3,0,0,1,1.1.37h0"/><path class="cls-4" d="M7.1,19.39h0a1.24,1.24,0,0,1,.84-.81A1.33,1.33,0,0,1,9.05,19h0"/><line class="cls-5" x1="9.81" y1="4.48" x2="11.35" y2="4.14"/><line class="cls-5" x1="10.37" y1="7.01" x2="11.92" y2="6.67"/><line class="cls-5" x1="10.91" y1="9.42" x2="12.46" y2="9.08"/><path class="cls-5" d="M13.51,13.3,11.6,4.76A5.73,5.73,0,0,0,.42,7.26L2.33,15.8a8.2,8.2,0,1,0,11.18-2.5Z"/><path class="cls-6" d="M15.68,12.31a1.08,1.08,0,0,0-.07.64,1.12,1.12,0,1,0,2.19-.49,1,1,0,0,0-.33-.55L16.2,10.54Z"/><path class="cls-6" d="M18.29,14a.61.61,0,0,0,0,.4.7.7,0,0,0,.85.54.71.71,0,0,0,.54-.85.78.78,0,0,0-.21-.35l-.81-.86Z"/></g></g></svg>