<svg xmlns="http://www.w3.org/2000/svg" xmlns:xlink="http://www.w3.org/1999/xlink" viewBox="0 0 446.79 108.91"><defs><style>.cls-1{opacity:0.5;fill:url(#linear-gradient);}.cls-2{fill:#f29bbe;}</style><linearGradient id="linear-gradient" x1="7854.46" y1="-7625.26" x2="7854.46" y2="-7734.17" gradientTransform="translate(8077.85 -7625.26) rotate(180)" gradientUnits="userSpaceOnUse"><stop offset="0" stop-color="#99539f" stop-opacity="0"/><stop offset="1" stop-color="#d35fa3"/></linearGradient></defs><g id="Layer_2" data-name="Layer 2"><g id="Graphics"><path class="cls-1" d="M31.11,90.54H197.44a12.22,12.22,0,0,1,8.64,3.58l13,13a6.07,6.07,0,0,0,8.6,0l13-13a12.22,12.22,0,0,1,8.64-3.58H415.67a31.12,31.12,0,0,0,31.12-31.12V0H0V59.43A31.11,31.11,0,0,0,31.11,90.54Z"/><path class="cls-2" d="M57.36,70a6.34,6.34,0,0,1-3.22-2.08c-1.9-2-3.85-3.86-5.77-5.79l-.43-.4c-.31.32-.58.64-.89.94a4.23,4.23,0,0,1-6.16,0q-1.94-1.9-3.84-3.84a4.21,4.21,0,0,1,0-6.19c2.57-2.59,5.19-5.14,7.72-7.77a29,29,0,0,0,7.61-14.51,1,1,0,0,0-.15-.65,4.26,4.26,0,0,1,3.89-6.26A4.1,4.1,0,0,1,59,24.72q8,8,16,16A4.25,4.25,0,0,1,72.37,48,4.24,4.24,0,0,1,70,47.49a1.36,1.36,0,0,0-.79-.13A29.23,29.23,0,0,0,58.57,51.9l-.24.18.53.54a4.24,4.24,0,0,1,0,6.26c-.28.29-.61.55-1,.87,1.13,1.11,2.22,2.09,3.21,3.16a4.23,4.23,0,0,1-1.5,6.79c-.33.13-.68.22-1,.32ZM48,45.6l6.14,6.14a32.67,32.67,0,0,1,13-6.81L54.79,32.64A32.45,32.45,0,0,1,48,45.6Zm-2.05,2.19-.26.24-6.57,6.58a1.45,1.45,0,0,0,0,2.3l3.64,3.64a1.48,1.48,0,0,0,2.44,0l6.44-6.45.29-.31ZM73.42,43.9a1.69,1.69,0,0,0-.58-1.34L57.15,26.87a2.81,2.81,0,0,0-.31-.29,1.36,1.36,0,0,0-1.47-.13,1.32,1.32,0,0,0-.78,1.2,1.58,1.58,0,0,0,.57,1.24Q63,36.72,70.85,44.58a2.14,2.14,0,0,0,.32.28,1.36,1.36,0,0,0,1.47.14A1.34,1.34,0,0,0,73.42,43.9ZM50,59.82l7,6.95a1.34,1.34,0,0,0,1.34.37,1.42,1.42,0,0,0,.57-2.46q-3.34-3.36-6.71-6.7a1.22,1.22,0,0,0-.18-.16Zm6-2.1c2.08-1.74,1.63-2.56,0-3.87l-2,1.87Z"/><path class="cls-2" d="M75.51,26a5,5,0,0,1-.58,1c-.88.93-1.79,1.82-2.7,2.71a1.41,1.41,0,1,1-2-2c.9-.92,1.82-1.83,2.73-2.74a1.39,1.39,0,0,1,1.61-.32A1.68,1.68,0,0,1,75.51,26Z"/><path class="cls-2" d="M75.4,35.82H74a1.43,1.43,0,0,1-1.46-1.42A1.42,1.42,0,0,1,74,33c.94,0,1.89,0,2.83,0a1.41,1.41,0,0,1,0,2.82C76.35,35.84,75.88,35.82,75.4,35.82Z"/><path class="cls-2" d="M66.91,24.52c0,.45,0,.91,0,1.37a1.41,1.41,0,0,1-2.82.09c0-1,0-2,0-3a1.41,1.41,0,0,1,2.82.1C66.92,23.57,66.91,24,66.91,24.52Z"/><path class="cls-2" d="M45.8,52.34a1.43,1.43,0,0,1,1.45.84,1.3,1.3,0,0,1-.22,1.5c-.69.73-1.4,1.45-2.13,2.13a1.4,1.4,0,0,1-2-2c.67-.71,1.35-1.4,2.07-2.06A2.66,2.66,0,0,1,45.8,52.34Z"/></g></g></svg>