<svg xmlns="http://www.w3.org/2000/svg" xmlns:xlink="http://www.w3.org/1999/xlink" viewBox="0 0 560.18 98.91"><defs><style>.cls-1{opacity:0.5;fill:url(#linear-gradient);}.cls-2{fill:#f29bbe;}</style><linearGradient id="linear-gradient" x1="280.09" y1="98.91" x2="280.09" gradientUnits="userSpaceOnUse"><stop offset="0" stop-color="#99539f" stop-opacity="0"/><stop offset="1" stop-color="#d35fa3"/></linearGradient></defs><g id="Layer_2" data-name="Layer 2"><g id="Graphics"><path class="cls-1" d="M529.07,18.37H306a12.16,12.16,0,0,1-8.63-3.58l-13-13a6.09,6.09,0,0,0-8.6,0l-13,13a12.21,12.21,0,0,1-8.63,3.57h-223A31.12,31.12,0,0,0,0,49.49V98.91H560.18V49.48A31.11,31.11,0,0,0,529.07,18.37Z"/><path class="cls-2" d="M43.9,82a6.3,6.3,0,0,1-3.22-2.08c-1.91-2-3.85-3.86-5.77-5.78l-.43-.41c-.31.32-.59.64-.89.94a4.23,4.23,0,0,1-6.16,0q-1.93-1.91-3.84-3.84a4.21,4.21,0,0,1,0-6.19c2.57-2.59,5.19-5.14,7.72-7.77a29,29,0,0,0,7.61-14.51,1,1,0,0,0-.15-.65,4.26,4.26,0,0,1,3.89-6.26,4.1,4.1,0,0,1,2.87,1.25q8,8,16,16a4,4,0,0,1,1,4.48,4,4,0,0,1-3.61,2.76,4.24,4.24,0,0,1-2.37-.47,1.36,1.36,0,0,0-.79-.13,29.23,29.23,0,0,0-10.64,4.54,2.91,2.91,0,0,0-.24.18l.53.54a4.24,4.24,0,0,1,0,6.26c-.29.29-.61.55-1,.87,1.12,1.11,2.22,2.09,3.21,3.16a4.23,4.23,0,0,1-1.5,6.79c-.33.13-.68.22-1,.32ZM34.53,57.56l6.14,6.14a32.6,32.6,0,0,1,13-6.81L41.33,44.6A32.58,32.58,0,0,1,34.53,57.56Zm-2.05,2.19-.26.24-6.57,6.58a1.45,1.45,0,0,0,0,2.3l3.64,3.64a1.48,1.48,0,0,0,2.44,0l6.44-6.45.29-.31ZM60,55.86a1.69,1.69,0,0,0-.58-1.34L43.69,38.83a2.81,2.81,0,0,0-.31-.29,1.42,1.42,0,0,0-2.26,1.07,1.63,1.63,0,0,0,.58,1.24L57.39,56.54a2.7,2.7,0,0,0,.31.28,1.36,1.36,0,0,0,1.47.14A1.33,1.33,0,0,0,60,55.86ZM36.56,71.78l7,7a1.33,1.33,0,0,0,1.34.37,1.42,1.42,0,0,0,.57-2.46q-3.34-3.36-6.71-6.7a1.22,1.22,0,0,0-.18-.16Zm6-2.1c2.09-1.74,1.64-2.56,0-3.87l-2,1.87Z"/><path class="cls-2" d="M62,37.94a4.49,4.49,0,0,1-.57,1c-.88.93-1.79,1.82-2.7,2.71a1.41,1.41,0,1,1-2-2c.9-.92,1.81-1.83,2.73-2.74a1.38,1.38,0,0,1,1.6-.32A1.64,1.64,0,0,1,62,37.94Z"/><path class="cls-2" d="M61.94,47.78H60.57a1.43,1.43,0,0,1-1.45-1.42A1.41,1.41,0,0,1,60.55,45c.94,0,1.89,0,2.83,0a1.39,1.39,0,0,1,1.4,1.42,1.41,1.41,0,0,1-1.42,1.4C62.89,47.8,62.42,47.78,61.94,47.78Z"/><path class="cls-2" d="M53.45,36.48c0,.45,0,.91,0,1.37a1.41,1.41,0,0,1-2.82.09c0-1,0-2,0-3a1.41,1.41,0,0,1,2.82.1C53.46,35.53,53.45,36,53.45,36.48Z"/><path class="cls-2" d="M32.34,64.3a1.44,1.44,0,0,1,1.45.84,1.32,1.32,0,0,1-.22,1.5c-.69.73-1.4,1.45-2.13,2.13a1.4,1.4,0,0,1-2-2c.67-.71,1.35-1.4,2.07-2.06A2.66,2.66,0,0,1,32.34,64.3Z"/></g></g></svg>