<svg xmlns="http://www.w3.org/2000/svg" xmlns:xlink="http://www.w3.org/1999/xlink" viewBox="0 0 26.52 38.79"><defs><style>.cls-1{fill:url(#linear-gradient);}.cls-2,.cls-3,.cls-4,.cls-5{fill:none;stroke-linecap:round;stroke-linejoin:round;}.cls-2,.cls-3,.cls-4{stroke-width:0.6px;}.cls-2{stroke:url(#linear-gradient-2);}.cls-3{stroke:url(#linear-gradient-3);}.cls-4{stroke:url(#linear-gradient-4);}.cls-5{stroke:#f29bbe;stroke-width:0.75px;}.cls-6{fill:#f29bbe;}</style><linearGradient id="linear-gradient" x1="250.77" y1="-383.49" x2="268.26" y2="-383.49" gradientTransform="translate(-158.81 450.69) rotate(-12.61)" gradientUnits="userSpaceOnUse"><stop offset="0" stop-color="#ffce3a"/><stop offset="1" stop-color="#f8a01b"/></linearGradient><linearGradient id="linear-gradient-2" x1="258.33" y1="-373.66" x2="263.66" y2="-373.66" gradientTransform="translate(-158.81 450.69) rotate(-12.61)" gradientUnits="userSpaceOnUse"><stop offset="0.08" stop-color="#3d2a7b"/><stop offset="0.25" stop-color="#452c7e"/><stop offset="0.53" stop-color="#5b3386"/><stop offset="0.86" stop-color="#803e92"/><stop offset="1" stop-color="#914398"/></linearGradient><linearGradient id="linear-gradient-3" x1="261.98" y1="-377.92" x2="265.27" y2="-377.92" xlink:href="#linear-gradient-2"/><linearGradient id="linear-gradient-4" x1="256.72" y1="-377.92" x2="260" y2="-377.92" xlink:href="#linear-gradient-2"/></defs><g id="Layer_2" data-name="Layer 2"><g id="Graphics"><path class="cls-1" d="M21,25.51A8.75,8.75,0,1,1,6.13,21.36L3.41,9.21A4.66,4.66,0,0,1,4,5.71a4.72,4.72,0,0,1,2.92-2,4.66,4.66,0,0,1,5.54,3.52l2.67,11.93A8.72,8.72,0,0,1,21,25.51Z"/><path class="cls-2" d="M12.07,29.88h0a4.29,4.29,0,0,1,2.26-1.14,4,4,0,0,1,2.35.11h0"/><path class="cls-3" d="M14.72,25h0a1.65,1.65,0,0,1,1.14-1.08,1.75,1.75,0,0,1,1.49.5h0"/><path class="cls-4" d="M9.58,26.16h0a1.65,1.65,0,0,1,1.14-1.08,1.75,1.75,0,0,1,1.49.5h0"/><line class="cls-5" x1="13.24" y1="6.05" x2="15.32" y2="5.58"/><line class="cls-5" x1="14" y1="9.47" x2="16.08" y2="9"/><line class="cls-5" x1="14.73" y1="12.72" x2="16.81" y2="12.25"/><path class="cls-5" d="M18.23,18,15.65,6.42A7.73,7.73,0,0,0,.56,9.79L3.14,21.32A11.07,11.07,0,1,0,18.23,18Z"/><path class="cls-6" d="M21.16,16.61a1.4,1.4,0,0,0-.09.86,1.52,1.52,0,1,0,3-.66,1.49,1.49,0,0,0-.45-.74l-1.72-1.84Z"/><path class="cls-6" d="M24.68,18.93a.94.94,0,0,0-.06.55,1,1,0,0,0,1.88-.42.94.94,0,0,0-.28-.47l-1.1-1.17Z"/></g></g></svg>