<svg xmlns="http://www.w3.org/2000/svg" xmlns:xlink="http://www.w3.org/1999/xlink" viewBox="0 0 29.99 40.47"><defs><style>.cls-1{fill:#f29bbe;fill-rule:evenodd;}.cls-2{fill:url(#linear-gradient);}.cls-3,.cls-4,.cls-5,.cls-6{fill:none;stroke-linecap:round;stroke-linejoin:round;}.cls-3,.cls-4,.cls-5{stroke-width:0.63px;}.cls-3{stroke:url(#linear-gradient-2);}.cls-4{stroke:url(#linear-gradient-3);}.cls-5{stroke:url(#linear-gradient-4);}.cls-6{stroke:#f29bbe;stroke-width:0.78px;}</style><linearGradient id="linear-gradient" x1="246.21" y1="-342.29" x2="264.46" y2="-342.29" gradientTransform="translate(-163.26 410.43) rotate(-12.61)" gradientUnits="userSpaceOnUse"><stop offset="0" stop-color="#479e7b"/><stop offset="1" stop-color="#6abe67"/></linearGradient><linearGradient id="linear-gradient-2" x1="10121.99" y1="-5445.55" x2="16979.03" y2="-5445.55" gradientTransform="translate(15392.78 -8990.14) rotate(167.39)" gradientUnits="userSpaceOnUse"><stop offset="0.08" stop-color="#3d2a7b"/><stop offset="0.25" stop-color="#452c7e"/><stop offset="0.53" stop-color="#5b3386"/><stop offset="0.86" stop-color="#803e92"/><stop offset="1" stop-color="#914398"/></linearGradient><linearGradient id="linear-gradient-3" x1="257.91" y1="-336.49" x2="261.34" y2="-336.49" gradientTransform="translate(-163.26 410.43) rotate(-12.61)" xlink:href="#linear-gradient-2"/><linearGradient id="linear-gradient-4" x1="252.42" y1="-336.49" x2="255.84" y2="-336.49" gradientTransform="translate(-163.26 410.43) rotate(-12.61)" xlink:href="#linear-gradient-2"/></defs><g id="Layer_2" data-name="Layer 2"><g id="Graphics"><polygon class="cls-1" points="29.42 21.25 29.05 21.09 28.7 21.08 28.34 21.19 27.94 21.42 27.95 20.96 27.87 20.59 27.69 20.29 27.38 20.04 26.93 19.89 26.48 19.92 26.07 20.12 25.75 20.47 25.52 21.03 25.44 21.68 25.47 22.39 25.59 23.16 25.76 23.95 25.96 24.77 26.77 24.55 27.55 24.32 28.28 24.05 28.92 23.73 29.45 23.35 29.83 22.88 29.99 22.43 29.96 21.97 29.77 21.56 29.42 21.25 29.42 21.25 29.42 21.25"/><polygon class="cls-1" points="27.44 16.77 27.26 16.69 27.09 16.69 26.92 16.74 26.73 16.85 26.73 16.63 26.69 16.45 26.61 16.31 26.46 16.19 26.24 16.11 26.02 16.13 25.83 16.22 25.67 16.39 25.57 16.66 25.53 16.98 25.54 17.32 25.6 17.69 25.68 18.07 25.78 18.46 26.17 18.36 26.54 18.25 26.89 18.12 27.2 17.96 27.45 17.78 27.64 17.55 27.71 17.34 27.7 17.12 27.61 16.92 27.44 16.77 27.44 16.77 27.44 16.77"/><path class="cls-2" d="M21.87,26.61A9.13,9.13,0,1,1,6.39,22.28L3.56,9.61A4.85,4.85,0,0,1,13,7.49L15.8,19.93A9.14,9.14,0,0,1,21.87,26.61Z"/><path class="cls-3" d="M17.26,29.46h0a4.44,4.44,0,0,1-2.36,1.19,4.19,4.19,0,0,1-2.45-.11h0"/><path class="cls-4" d="M15.36,26.1h0A1.73,1.73,0,0,1,16.54,25a1.86,1.86,0,0,1,1.56.52h0"/><path class="cls-5" d="M10,27.3h0a1.73,1.73,0,0,1,1.18-1.14,1.86,1.86,0,0,1,1.56.52h0"/><line class="cls-6" x1="13.81" y1="6.31" x2="15.98" y2="5.83"/><line class="cls-6" x1="14.61" y1="9.87" x2="16.78" y2="9.39"/><line class="cls-6" x1="15.36" y1="13.27" x2="17.54" y2="12.78"/><path class="cls-6" d="M19,18.72l-2.69-12A8.06,8.06,0,0,0,.59,10.22l2.69,12A11.54,11.54,0,1,0,19,18.72Z"/></g></g></svg>