<svg xmlns="http://www.w3.org/2000/svg" xmlns:xlink="http://www.w3.org/1999/xlink" viewBox="0 0 24.88 40.44"><defs><style>.cls-1{opacity:0.8;fill:url(#linear-gradient);}.cls-2,.cls-3,.cls-4,.cls-5{fill:none;stroke-linecap:round;stroke-linejoin:round;}.cls-2,.cls-3,.cls-4{stroke-width:0.64px;}.cls-2{stroke:url(#linear-gradient-2);}.cls-3{stroke:url(#linear-gradient-3);}.cls-4{stroke:url(#linear-gradient-4);}.cls-5{stroke:#f29bbe;stroke-width:0.8px;}</style><linearGradient id="linear-gradient" x1="187.12" y1="-430.4" x2="205.34" y2="-430.4" gradientTransform="translate(-86.35 483.49) rotate(-12.61)" gradientUnits="userSpaceOnUse"><stop offset="0" stop-color="#f69441"/><stop offset="1" stop-color="#f06024"/></linearGradient><linearGradient id="linear-gradient-2" x1="193.33" y1="-424.13" x2="196.87" y2="-424.13" gradientTransform="translate(-86.35 483.49) rotate(-12.61)" gradientUnits="userSpaceOnUse"><stop offset="0.08" stop-color="#3d2a7b"/><stop offset="0.25" stop-color="#452c7e"/><stop offset="0.53" stop-color="#5b3386"/><stop offset="0.86" stop-color="#803e92"/><stop offset="1" stop-color="#914398"/></linearGradient><linearGradient id="linear-gradient-3" x1="198.43" y1="-424.13" x2="201.98" y2="-424.13" xlink:href="#linear-gradient-2"/><linearGradient id="linear-gradient-4" x1="195.23" y1="-420.31" x2="200.13" y2="-420.31" xlink:href="#linear-gradient-2"/></defs><g id="Layer_2" data-name="Layer 2"><g id="Graphics"><path class="cls-1" d="M21.85,26.59A9.11,9.11,0,1,1,6.4,22.26L3.57,9.61A4.76,4.76,0,0,1,4.21,6,4.84,4.84,0,0,1,13,7.49L15.8,19.92A9.09,9.09,0,0,1,21.85,26.59Z"/><polyline class="cls-2" points="9.66 25.64 12.87 26.72 10.4 28.98"/><polyline class="cls-3" points="18.22 27.24 15 26.15 17.47 23.89"/><path class="cls-4" d="M17.11,30.73,13,31.66h0a2.13,2.13,0,0,1,1.62-2.54h0a2.12,2.12,0,0,1,2.54,1.61Z"/><line class="cls-5" x1="13.8" y1="6.32" x2="15.97" y2="5.83"/><line class="cls-5" x1="14.6" y1="9.87" x2="16.77" y2="9.39"/><line class="cls-5" x1="15.36" y1="13.26" x2="17.53" y2="12.78"/><path class="cls-5" d="M19,18.71l-2.68-12A8.05,8.05,0,0,0,.6,10.22l2.68,12A11.53,11.53,0,1,0,19,18.71Z"/></g></g></svg>