<svg xmlns="http://www.w3.org/2000/svg" xmlns:xlink="http://www.w3.org/1999/xlink" viewBox="0 0 537.5 108.91"><defs><style>.cls-1{opacity:0.5;fill:url(#linear-gradient);}.cls-2{fill:#f29bbe;}</style><linearGradient id="linear-gradient" x1="-496.75" y1="-1059.33" x2="-496.75" y2="-1168.24" gradientTransform="translate(-228 -1059.33) rotate(180)" gradientUnits="userSpaceOnUse"><stop offset="0" stop-color="#99539f" stop-opacity="0"/><stop offset="1" stop-color="#d35fa3"/></linearGradient></defs><g id="Layer_2" data-name="Layer 2"><g id="Graphics"><path class="cls-1" d="M31.11,90.54H242.8a12.22,12.22,0,0,1,8.63,3.58l13,13a6.06,6.06,0,0,0,8.59,0l13-13a12.2,12.2,0,0,1,8.63-3.58H506.38A31.12,31.12,0,0,0,537.5,59.42V0H0V59.43A31.11,31.11,0,0,0,31.11,90.54Z"/><path class="cls-2" d="M73.5,70.6a6.39,6.39,0,0,1-3.23-2.09c-1.9-2-3.84-3.86-5.77-5.78-.12-.12-.24-.24-.43-.41-.3.33-.58.65-.88.94a4.23,4.23,0,0,1-6.16,0l-3.84-3.84a4.23,4.23,0,0,1,0-6.2c2.58-2.59,5.2-5.14,7.73-7.76A29.09,29.09,0,0,0,68.53,31a1.1,1.1,0,0,0-.15-.65A4.27,4.27,0,0,1,72.27,24a4.16,4.16,0,0,1,2.87,1.25q8,8,16,16a4.25,4.25,0,0,1-2.62,7.25,4.39,4.39,0,0,1-2.38-.48,1.32,1.32,0,0,0-.78-.12,29.21,29.21,0,0,0-10.64,4.53,2.91,2.91,0,0,0-.24.18l.53.54a4.25,4.25,0,0,1,0,6.27c-.29.29-.61.54-1,.87,1.13,1.1,2.22,2.08,3.22,3.15a4.24,4.24,0,0,1-1.5,6.79c-.33.14-.68.22-1,.33ZM64.13,46.17l6.14,6.14a32.46,32.46,0,0,1,13-6.8L70.92,33.21A32.36,32.36,0,0,1,64.13,46.17Zm-2,2.2-.26.23-6.57,6.58a1.45,1.45,0,0,0,0,2.3q1.81,1.83,3.64,3.64a1.47,1.47,0,0,0,2.43,0l6.45-6.44.29-.32Zm27.48-3.89A1.7,1.7,0,0,0,89,43.13L73.29,27.45a2.21,2.21,0,0,0-.32-.29A1.34,1.34,0,0,0,71.51,27a1.33,1.33,0,0,0-.79,1.2,1.58,1.58,0,0,0,.58,1.24L87,45.15a2.81,2.81,0,0,0,.31.29,1.36,1.36,0,0,0,1.47.13A1.31,1.31,0,0,0,89.56,44.48ZM66.16,60.39l7,7a1.31,1.31,0,0,0,1.34.37A1.41,1.41,0,0,0,75,65.25q-3.33-3.36-6.7-6.7l-.18-.15Zm6-2.1c2.08-1.73,1.64-2.56,0-3.87l-2,1.88Z"/><path class="cls-2" d="M91.64,26.56a5.24,5.24,0,0,1-.57,1c-.88.92-1.79,1.81-2.7,2.71a1.41,1.41,0,0,1-2.06.07,1.4,1.4,0,0,1,.06-2.06c.9-.92,1.81-1.84,2.73-2.74a1.38,1.38,0,0,1,1.6-.33A1.64,1.64,0,0,1,91.64,26.56Z"/><path class="cls-2" d="M91.54,36.4H90.17A1.43,1.43,0,0,1,88.72,35a1.42,1.42,0,0,1,1.43-1.4c.94,0,1.89,0,2.83,0A1.4,1.4,0,0,1,94.38,35,1.42,1.42,0,0,1,93,36.4Z"/><path class="cls-2" d="M83.05,25.09c0,.46,0,.91,0,1.37a1.41,1.41,0,0,1-2.81.09q-.06-1.49,0-3a1.41,1.41,0,0,1,2.81.09C83.05,24.15,83.05,24.62,83.05,25.09Z"/><path class="cls-2" d="M61.94,52.91a1.44,1.44,0,0,1,1.45.84,1.32,1.32,0,0,1-.22,1.5c-.69.73-1.4,1.45-2.14,2.14a1.38,1.38,0,0,1-2-.09,1.4,1.4,0,0,1,0-1.93c.67-.7,1.36-1.4,2.08-2.06A2.66,2.66,0,0,1,61.94,52.91Z"/></g></g></svg>